<?xml version="1.0" standalone="no"?>
<!DOCTYPE svg PUBLIC "-//W3C//DTD SVG 20010904//EN"
 "http://www.w3.org/TR/2001/REC-SVG-20010904/DTD/svg10.dtd">
<svg version="1.0" xmlns="http://www.w3.org/2000/svg"
 width="700.000000pt" height="700.000000pt" viewBox="0 0 700.000000 700.000000"
 preserveAspectRatio="xMidYMid meet">
<metadata>
Created by potrace 1.11, written by Peter Selinger 2001-2013
</metadata>
<g transform="translate(0.000000,700.000000) scale(0.100000,-0.100000)"
fill="#000000" stroke="none">
<path d="M3278 6995 c-1 -1 -42 -5 -89 -9 -47 -4 -96 -9 -109 -11 -13 -2 -48
-7 -79 -10 -31 -3 -63 -7 -71 -10 -8 -2 -33 -6 -55 -10 -90 -13 -319 -70 -446
-111 -686 -221 -1264 -632 -1727 -1230 -168 -217 -355 -550 -461 -824 -29 -74
-54 -142 -56 -150 -2 -8 -10 -34 -19 -57 -22 -61 -73 -255 -90 -343 -8 -41
-17 -84 -19 -95 -5 -23 -24 -144 -31 -195 -36 -272 -27 -728 20 -1012 136
-821 548 -1545 1193 -2098 429 -368 1006 -651 1541 -755 286 -56 429 -70 730
-70 221 0 327 7 490 31 19 3 53 7 75 10 118 15 367 77 553 140 1098 370 1970
1305 2256 2420 35 139 79 365 92 479 4 33 9 76 11 95 8 69 10 546 2 610 -4 36
-10 90 -13 120 -51 462 -221 973 -455 1359 -28 46 -51 85 -51 87 0 2 -37 56
-82 121 -477 691 -1182 1193 -1970 1402 -96 25 -145 37 -293 67 -10 2 -37 6
-60 9 -22 4 -51 8 -65 10 -14 2 -50 7 -80 10 -30 4 -73 9 -95 12 -45 5 -541
13 -547 8z m427 -289 c61 -4 124 -8 140 -11 32 -4 140 -18 165 -21 61 -6 305
-62 398 -90 385 -117 697 -273 1022 -513 189 -140 441 -386 600 -587 150 -189
314 -463 410 -684 18 -41 41 -93 50 -115 21 -47 108 -314 114 -350 3 -14 7
-28 9 -32 8 -14 53 -237 63 -313 3 -25 7 -52 9 -60 2 -8 7 -51 11 -95 3 -44 8
-89 10 -100 5 -25 5 -416 0 -465 -2 -19 -7 -71 -11 -115 -4 -44 -9 -82 -10
-85 -2 -3 -6 -30 -10 -60 -3 -30 -19 -116 -35 -190 -171 -808 -662 -1528
-1360 -1995 -187 -125 -340 -206 -595 -314 -131 -56 -449 -148 -575 -166 -24
-4 -47 -8 -50 -10 -3 -2 -28 -6 -55 -9 -28 -4 -61 -8 -75 -10 -28 -5 -142 -17
-210 -22 -72 -6 -379 -6 -445 0 -96 8 -178 17 -205 21 -14 3 -54 9 -90 14 -36
6 -76 13 -90 16 -14 3 -38 8 -55 11 -79 14 -244 60 -380 105 -457 154 -870
413 -1225 769 -419 418 -701 913 -845 1480 -15 58 -28 112 -30 120 -1 8 -5 31
-9 50 -3 19 -8 46 -11 60 -9 43 -23 152 -30 225 -4 39 -9 81 -11 95 -5 31 -5
421 0 470 2 19 7 69 10 110 4 41 14 113 22 160 8 47 17 100 20 119 3 18 8 42
10 52 2 11 6 29 9 40 27 126 112 401 145 474 5 11 25 58 45 105 73 170 199
395 309 550 258 364 565 654 943 893 100 63 417 225 472 242 13 4 40 14 60 23
20 9 38 16 41 17 3 1 55 17 115 37 111 37 312 90 395 104 25 4 47 8 50 9 4 1
104 15 215 30 17 3 84 7 150 11 66 4 121 7 122 8 3 2 175 -3 278 -8z"/>
<path d="M3369 6446 c-1 0 -2 -63 -3 -140 -1 -86 2 -140 9 -142 5 -1 69 -5
140 -9 72 -3 144 -7 160 -9 17 -2 57 -7 90 -10 203 -22 513 -104 720 -191 231
-98 448 -226 665 -394 107 -82 355 -329 444 -441 66 -83 231 -324 242 -355 3
-8 10 -15 15 -15 5 0 54 27 110 60 55 33 105 60 110 60 35 0 6 61 -111 235
-179 265 -484 578 -747 767 -246 177 -533 326 -813 420 -102 35 -342 98 -425
112 -125 21 -234 36 -315 42 -85 6 -288 13 -291 10z"/>
<path d="M3441 5872 c-35 -19 -146 -125 -206 -197 -251 -299 -348 -621 -274
-910 48 -185 166 -388 333 -570 l77 -85 -3 -61 -3 -61 -45 42 c-197 183 -486
273 -877 274 -88 0 -106 -3 -130 -20 -56 -42 -64 -69 -63 -221 0 -76 2 -147 4
-159 2 -11 7 -47 10 -80 24 -219 133 -461 270 -599 194 -195 452 -291 814
-304 l22 -1 0 -211 0 -211 -65 57 c-134 117 -355 214 -545 240 -25 3 -58 8
-73 11 -61 10 -304 12 -339 3 -41 -11 -74 -40 -89 -79 -11 -27 -14 -237 -4
-315 38 -317 124 -525 284 -684 178 -179 428 -276 761 -296 30 -2 58 -4 63 -4
4 -1 7 -180 7 -398 0 -359 2 -401 18 -432 40 -80 148 -94 209 -27 19 21 34 47
34 63 1 16 2 199 3 408 l1 379 45 3 c437 28 723 166 895 433 66 102 130 266
151 390 3 14 7 36 9 50 13 70 19 168 19 286 0 119 -2 134 -23 163 -42 59 -65
64 -253 58 -93 -4 -172 -8 -176 -10 -4 -3 -29 -7 -57 -11 -191 -23 -423 -126
-549 -244 -25 -24 -49 -44 -53 -45 -10 -3 -10 404 0 410 5 3 30 7 55 8 277 17
552 111 704 242 231 199 349 498 351 889 1 133 -1 155 -19 185 -37 63 -67 71
-254 65 -91 -2 -176 -7 -190 -10 -13 -3 -42 -8 -65 -11 -128 -19 -305 -83
-415 -151 -41 -26 -77 -49 -80 -53 -3 -3 -26 -25 -51 -49 l-46 -43 -2 65 -2
65 67 73 c283 307 402 604 362 899 -32 230 -176 491 -387 697 -112 109 -163
130 -230 94z m109 -349 c109 -124 198 -279 234 -410 18 -67 23 -173 11 -243
-23 -138 -124 -323 -253 -468 l-38 -43 -40 43 c-172 187 -266 399 -259 586 6
159 69 306 204 477 75 94 84 105 92 105 4 0 26 -21 49 -47z m-798 -1509 c386
-73 582 -312 614 -748 l6 -89 -78 7 c-110 9 -130 12 -208 30 -361 84 -536 314
-571 750 l-7 79 84 -7 c45 -4 117 -14 160 -22z m1734 -57 c-3 -45 -8 -91 -10
-102 -2 -11 -6 -38 -10 -60 -14 -79 -57 -197 -99 -273 -84 -152 -262 -270
-467 -311 -95 -19 -113 -21 -193 -27 l-78 -6 5 59 c8 78 17 152 22 175 2 10 6
28 9 39 34 159 107 298 203 388 120 113 342 189 576 198 l48 2 -6 -82z m-1781
-1418 c340 -52 533 -211 619 -510 36 -125 56 -336 31 -333 -5 1 -46 4 -90 8
-336 26 -554 158 -665 401 -23 50 -57 157 -64 205 -11 62 -15 100 -21 171 l-6
77 63 -4 c35 -2 95 -9 133 -15z m1786 7 c1 -20 -2 -108 -6 -125 -1 -9 -6 -38
-9 -66 -25 -187 -113 -368 -228 -469 -82 -72 -235 -143 -348 -161 -19 -3 -42
-8 -50 -10 -23 -6 -99 -14 -160 -17 -63 -2 -59 -14 -46 122 22 228 89 393 211
516 111 113 272 181 488 208 124 15 147 16 148 2z"/>
<path d="M6014 4614 l-122 -56 40 -91 c96 -219 179 -502 203 -685 3 -20 7 -53
10 -72 2 -19 7 -64 11 -100 4 -36 8 -74 9 -85 1 -11 3 -67 4 -125 l1 -105 138
-1 c75 0 140 4 143 9 8 11 3 207 -6 307 -4 36 -8 79 -9 95 -5 54 -27 188 -41
250 -8 33 -16 71 -19 85 -30 163 -201 631 -230 630 -6 -1 -66 -26 -132 -56z"/>
</g>
</svg>
